name F:\PHD\Matlab_Output_Files\Ahelaos\HopStudy\HopDistance\Right\HDR_1\HDR_1_GRF.mot
datacolumns 10
datarows 47
range 2.68500000 2.73100000
endheader

                time	     ground_force_vx	     ground_force_vy	     ground_force_vz	     ground_force_px	     ground_force_py	     ground_force_pz	     ground_torque_x	     ground_torque_y	     ground_torque_z	
          2.68500000	         -4.81870250	        715.14096552	          0.01831593	         -0.25615166	          0.00000000	          0.22466074	          0.00000000	         -0.09156211	          0.00000000	
          2.68600000	         -4.78441621	        715.25031768	          0.00199937	         -0.25616158	          0.00000000	          0.22477468	          0.00000000	         -0.09862421	          0.00000000	
          2.68700000	         -4.76786965	        715.35525331	         -0.01195133	         -0.25617974	          0.00000000	          0.22489052	          0.00000000	         -0.10382708	          0.00000000	
          2.68800000	         -4.76251866	        715.46151043	         -0.02684523	         -0.25620497	          0.00000000	          0.22499965	          0.00000000	         -0.10544841	          0.00000000	
          2.68900000	         -4.75656999	        715.56818829	         -0.04119388	         -0.25623479	          0.00000000	          0.22509766	          0.00000000	         -0.10348346	          0.00000000	
          2.69000000	         -4.74132208	        715.65681300	         -0.05051856	         -0.25626755	          0.00000000	          0.22518799	          0.00000000	         -0.09982515	          0.00000000	
          2.69100000	         -4.71475865	        715.70747906	         -0.05213505	         -0.25630515	          0.00000000	          0.22527726	          0.00000000	         -0.09643504	          0.00000000	
          2.69200000	         -4.67870925	        715.72223618	         -0.04840740	         -0.25635141	          0.00000000	          0.22536929	          0.00000000	         -0.09401287	          0.00000000	
          2.69300000	         -4.63501392	        715.72474853	         -0.04557946	         -0.25640787	          0.00000000	          0.22546496	          0.00000000	         -0.09296502	          0.00000000	
          2.69400000	         -4.58303396	        715.74675025	         -0.04946623	         -0.25647152	          0.00000000	          0.22556441	          0.00000000	         -0.09415056	          0.00000000	
          2.69500000	         -4.52102078	        715.81697762	         -0.06133466	         -0.25653596	          0.00000000	          0.22566667	          0.00000000	         -0.09815506	          0.00000000	
          2.69600000	         -4.45006855	        715.95087343	         -0.07971032	         -0.25659545	          0.00000000	          0.22576881	          0.00000000	         -0.10488640	          0.00000000	
          2.69700000	         -4.37311340	        716.14961633	         -0.10590342	         -0.25664868	          0.00000000	          0.22586784	          0.00000000	         -0.11387418	          0.00000000	
          2.69800000	         -4.29116458	        716.41066830	         -0.14307351	         -0.25669799	          0.00000000	          0.22596456	          0.00000000	         -0.12450577	          0.00000000	
          2.69900000	         -4.20401002	        716.72031581	         -0.19103696	         -0.25674489	          0.00000000	          0.22606433	          0.00000000	         -0.13626892	          0.00000000	
          2.70000000	         -4.11270492	        717.03725026	         -0.24622081	         -0.25678734	          0.00000000	          0.22617198	          0.00000000	         -0.14878026	          0.00000000	
          2.70100000	         -4.01958963	        717.32194350	         -0.30464486	         -0.25682222	          0.00000000	          0.22628806	          0.00000000	         -0.16154065	          0.00000000	
          2.70200000	         -3.92518576	        717.57923022	         -0.36255279	         -0.25684927	          0.00000000	          0.22641078	          0.00000000	         -0.17425053	          0.00000000	
          2.70300000	         -3.82671468	        717.83312977	         -0.41705983	         -0.25687141	          0.00000000	          0.22653809	          0.00000000	         -0.18740581	          0.00000000	
          2.70400000	         -3.72398081	        718.07739078	         -0.46918840	         -0.25689227	          0.00000000	          0.22666818	          0.00000000	         -0.20161132	          0.00000000	
          2.70500000	         -3.62448927	        718.28607870	         -0.52582414	         -0.25691394	          0.00000000	          0.22680014	          0.00000000	         -0.21622081	          0.00000000	
          2.70600000	         -3.53779126	        718.45402835	         -0.59766716	         -0.25693707	          0.00000000	          0.22693349	          0.00000000	         -0.23002565	          0.00000000	
          2.70700000	         -3.46716810	        718.60061661	         -0.69383131	         -0.25696267	          0.00000000	          0.22706670	          0.00000000	         -0.24291142	          0.00000000	
          2.70800000	         -3.41016733	        718.74428257	         -0.81556304	         -0.25699198	          0.00000000	          0.22719748	          0.00000000	         -0.25540667	          0.00000000	
          2.70900000	         -3.36431201	        718.89166214	         -0.95536445	         -0.25702454	          0.00000000	          0.22732498	          0.00000000	         -0.26797971	          0.00000000	
          2.71000000	         -3.32920915	        719.03910651	         -1.10430954	         -0.25705848	          0.00000000	          0.22745075	          0.00000000	         -0.28166156	          0.00000000	
          2.71100000	         -3.30575292	        719.16963895	         -1.25912875	         -0.25709375	          0.00000000	          0.22757733	          0.00000000	         -0.29722409	          0.00000000	
          2.71200000	         -3.29564253	        719.26571430	         -1.42044024	         -0.25713339	          0.00000000	          0.22770756	          0.00000000	         -0.31345847	          0.00000000	
          2.71300000	         -3.29979292	        719.32685072	         -1.58647838	         -0.25717997	          0.00000000	          0.22784528	          0.00000000	         -0.32814840	          0.00000000	
          2.71400000	         -3.31731549	        719.35758266	         -1.75391335	         -0.25723134	          0.00000000	          0.22799325	          0.00000000	         -0.34032459	          0.00000000	
          2.71500000	         -3.34685600	        719.35241564	         -1.92334525	         -0.25728163	          0.00000000	          0.22814905	          0.00000000	         -0.35030196	          0.00000000	
          2.71600000	         -3.38715855	        719.30365265	         -2.09893916	         -0.25732521	          0.00000000	          0.22830566	          0.00000000	         -0.35859775	          0.00000000	
          2.71700000	         -3.43692574	        719.21176119	         -2.28533710	         -0.25735936	          0.00000000	          0.22845777	          0.00000000	         -0.36568935	          0.00000000	
          2.71800000	         -3.49546392	        719.08802244	         -2.48574603	         -0.25738510	          0.00000000	          0.22860604	          0.00000000	         -0.37192176	          0.00000000	
          2.71900000	         -3.56183440	        718.95014486	         -2.69932592	         -0.25740518	          0.00000000	          0.22875467	          0.00000000	         -0.37773953	          0.00000000	
          2.72000000	         -3.63217964	        718.81413857	         -2.92149377	         -0.25742000	          0.00000000	          0.22890681	          0.00000000	         -0.38429713	          0.00000000	
          2.72100000	         -3.69888276	        718.68985374	         -3.14752533	         -0.25742691	          0.00000000	          0.22906275	          0.00000000	         -0.39259655	          0.00000000	
          2.72200000	         -3.75511698	        718.57964116	         -3.37414820	         -0.25742374	          0.00000000	          0.22922111	          0.00000000	         -0.40211130	          0.00000000	
          2.72300000	         -3.80249698	        718.47845479	         -3.59872635	         -0.25741219	          0.00000000	          0.22938087	          0.00000000	         -0.41141442	          0.00000000	
          2.72400000	         -3.85229109	        718.37311976	         -3.81950999	         -0.25739753	          0.00000000	          0.22954287	          0.00000000	         -0.41904743	          0.00000000	
          2.72500000	         -3.91628878	        718.24179296	         -4.03771771	         -0.25738482	          0.00000000	          0.22970962	          0.00000000	         -0.42308913	          0.00000000	
          2.72600000	         -3.99876234	        718.06173627	         -4.25848380	         -0.25737589	          0.00000000	          0.22988335	          0.00000000	         -0.42208964	          0.00000000	
          2.72700000	         -4.09789247	        717.82265225	         -4.48816712	         -0.25736923	          0.00000000	          0.23006384	          0.00000000	         -0.41678828	          0.00000000	
          2.72800000	         -4.20910533	        717.53092295	         -4.72976240	         -0.25736166	          0.00000000	          0.23024804	          0.00000000	         -0.40905162	          0.00000000	
          2.72900000	         -4.32607096	        717.20423907	         -4.98160211	         -0.25735080	          0.00000000	          0.23043194	          0.00000000	         -0.40002877	          0.00000000	
          2.73000000	         -4.44292409	        716.86469351	         -5.24080994	         -0.25733684	          0.00000000	          0.23061284	          0.00000000	         -0.39064159	          0.00000000	
          2.73100000	         -4.55812108	        716.52393551	         -5.50536747	         -0.25732156	          0.00000000	          0.23078935	          0.00000000	         -0.38202933	          0.00000000	
